<svg xmlns="http://www.w3.org/2000/svg" viewBox="0.05 -3 2.733333333333333 3" class="bricks" width="100%" height="100%">
    <style>
    .brickRect {
        stroke: black;
        fill: #FFF;
    }
    .brickText {
        text-anchor: middle;
        dominant-baseline: central;
        fill: none;
        stroke: black;
        stroke-width: 0.06;
        stroke-linecap: round;
        stroke-linejoin: round;
        user-select: none;
    }
    </style>
    <g class="brick" transform="translate(0.09,-0.96)">
        <rect width="2.653333333333333" height="0.92" stroke-width="0.08" class="brickRect" opacity="1" pointer-events="auto" rx="0.2"></rect>
        <g transform="translate(1.0766666666666664,0.45999999999999996)" class="brickText" opacity="1" pointer-events="auto">
            <path d="M0.08333333333333334 -0.16666666666666669L0.4166666666666667 0.16666666666666669M0.08333333333333334 0.16666666666666669L0.4166666666666667 -0.16666666666666669" opacity="1"></path>
        </g>
    </g>
    <g class="brick commutable" transform="translate(0.09,-1.96)">
        <rect width="1.153333333333333" height="0.92" stroke-width="0.08" class="brickRect" opacity="1" pointer-events="auto" rx="0.2"></rect>
        <g transform="translate(0.4099999999999999,0.5433333333333333)" class="brickText" opacity="1" pointer-events="auto">
            <path d="M0.03333333333333333 -0.16666666666666666C0.16666666666666666 -0.3333333333333333 0.3 -0.2333333333333333 0.13333333333333333 0C0 0.19999999999999998 0 0.06666666666666667 0.09999999999999999 0.06666666666666667C0.13333333333333333 0.06666666666666667 0.19999999999999998 0.13333333333333333 0.3 0.09999999999999999" opacity="1"></path>
        </g>
    </g>
    <g class="brick commutable" transform="translate(1.4233333333333333,-1.96)">
        <rect width="1.3199999999999996" height="0.92" stroke-width="0.08" class="brickRect" opacity="1" pointer-events="auto" rx="0.2"></rect>
        <g transform="translate(0.4099999999999998,0.45999999999999996)" class="brickText" opacity="1" pointer-events="auto">
            <path d="M0.08333333333333334 0L0.4166666666666667 0M0.22500000000000003 -0.20833333333333334L0.275 -0.16666666666666669M0.22500000000000003 0.16666666666666669L0.275 0.20833333333333334" opacity="1"></path>
        </g>
    </g>
    <g class="brick" transform="translate(1.4233333333333333,-2.96)">
        <rect width="1.3199999999999996" height="0.92" stroke-width="0.08" class="brickRect" opacity="1" pointer-events="auto" rx="0.2"></rect>
        <g transform="translate(0.5099999999999998,0.5433333333333333)" class="brickText" opacity="1" pointer-events="auto">
            <path d="M0.03333333333333333 -0.26666666666666666C0.3333333333333333 -0.3333333333333333 0.19999999999999998 -0.16666666666666666 0.06666666666666667 -0.13333333333333333C0.3333333333333333 -0.19999999999999998 0.3666666666666667 0.19999999999999998 0.03333333333333333 0.09999999999999999" opacity="1"></path>
        </g>
    </g>
</svg>