<svg xmlns="http://www.w3.org/2000/svg" viewBox="0.05 -3.025 5.683333333333334 3.05" class="bricks">
   <style>
:root {
    --color-leaf: #BAFCDE;
    --color-branch: #C9DCFF;
    --color-root: #FFD1D1;
    --color-black: #000000;
}
.brickRect {
    stroke: var(--color-black);
}
.brickText {
    text-anchor: middle;
    dominant-baseline: central;
    fill: none;
    stroke: var(--color-black);
    stroke-width: 0.05;
    stroke-linecap: round;
    stroke-linejoin: round;
    pointer-events: none;
}
.brick.leaf > .brickRect {
    fill: var(--color-leaf)
}
.brick.branch > .brickRect{
    fill: var(--color-branch)
}
.brick.root > .brickRect {
    fill: var(--color-root)
}
   </style>
    <g class="brick branch selected" transform="translate(0.07500000000000001,-1)">
        <rect width="5.633333333333334" height="1" stroke-width="0.05" class="brickRect" opacity="1" pointer-events="auto" rx="0.2"></rect>
        <g transform="translate(2.566666666666667,0.5)" class="brickText" opacity="1" pointer-events="auto">
            <path d="M0.25 -0.16666666666666669L0.25 0.16666666666666669M0.08333333333333334 0L0.4166666666666667 0" opacity="1"></path>
        </g>
    </g>
    <g class="brick branch commutable" transform="translate(0.07500000000000001,-2)">
        <rect width="2.683333333333333" height="1" stroke-width="0.05" class="brickRect" opacity="1" pointer-events="auto" rx="0.2"></rect>
        <g transform="translate(1.0916666666666666,0.5)" class="brickText" opacity="1" pointer-events="auto">
            <path d="M0.08333333333333334 -0.16666666666666669L0.4166666666666667 0.16666666666666669M0.08333333333333334 0.16666666666666669L0.4166666666666667 -0.16666666666666669" opacity="1"></path>
        </g>
    </g>
    <g class="brick leaf commutable" transform="translate(0.07500000000000001,-3)">
        <rect width="1.3499999999999999" height="1" stroke-width="0.05" class="brickRect" opacity="1" pointer-events="auto" rx="0.2"></rect>
        <g transform="translate(0.42499999999999993,0.5)" class="brickText" opacity="1" pointer-events="auto">
            <path d="M0.35 -0.15C0.2 -0.25 0 0 0.1 0.1C0.2 0.2 0.35 0.1 0.35 -0.15C0.35 0 0.4 0.15 0.475 0.15" opacity="1"></path>
        </g>
    </g>
    <g class="brick leaf commutable" transform="translate(1.575,-3)">
        <rect width="1.183333333333333" height="1" stroke-width="0.05" class="brickRect" opacity="1" pointer-events="auto" rx="0.2"></rect>
        <g transform="translate(0.4249999999999998,0.5833333333333334)" class="brickText" opacity="1" pointer-events="auto">
            <path d="M0.03333333333333333 -0.26666666666666666L0.03333333333333333 0.13333333333333333C0.03333333333333333 0 0.09999999999999999 -0.09999999999999999 0.19999999999999998 -0.09999999999999999C0.3333333333333333 -0.09999999999999999 0.3 0.2333333333333333 0.03333333333333333 0.06666666666666667" opacity="1"></path>
        </g>
    </g>
    <g class="brick branch commutable" transform="translate(2.9083333333333328,-2)">
        <rect width="2.8000000000000003" height="1" stroke-width="0.05" class="brickRect" opacity="1" pointer-events="auto" rx="0.2"></rect>
        <g transform="translate(1.1500000000000001,0.5)" class="brickText" opacity="1" pointer-events="auto">
            <path d="M0.08333333333333334 -0.16666666666666669L0.4166666666666667 0.16666666666666669M0.08333333333333334 0.16666666666666669L0.4166666666666667 -0.16666666666666669" opacity="1"></path>
        </g>
    </g>
    <g class="brick leaf commutable" transform="translate(2.9083333333333328,-3)">
        <rect width="1.3499999999999999" height="1" stroke-width="0.05" class="brickRect" opacity="1" pointer-events="auto" rx="0.2"></rect>
        <g transform="translate(0.42499999999999993,0.5)" class="brickText" opacity="1" pointer-events="auto">
            <path d="M0.35 -0.15C0.2 -0.25 0 0 0.1 0.1C0.2 0.2 0.35 0.1 0.35 -0.15C0.35 0 0.4 0.15 0.475 0.15" opacity="1"></path>
        </g>
    </g>
    <g class="brick leaf commutable" transform="translate(4.408333333333333,-3)">
        <rect width="1.3" height="1" stroke-width="0.05" class="brickRect" opacity="1" pointer-events="auto" rx="0.2"></rect>
        <g transform="translate(0.42500000000000004,0.5)" class="brickText" opacity="1" pointer-events="auto">
            <path d="M0.35 -0.1C0.25 -0.2 0.05 -0.15 0.05 0C0.05 0.15 0.3 0.25 0.4 0.1" opacity="1"></path>
        </g>
    </g>
</svg>