<svg xmlns="http://www.w3.org/2000/svg" viewBox="0.05 -2.025 1.5 2.05" class="bricks">
   <style>
:root {
    --color-leaf: #BAFCDE;
    --color-branch: #C9DCFF;
    --color-root: #FFD1D1;
    --color-black: #000000;
}
.brickRect {
    stroke: var(--color-black);
}
.brickText {
    text-anchor: middle;
    dominant-baseline: central;
    fill: none;
    stroke: var(--color-black);
    stroke-width: 0.05;
    stroke-linecap: round;
    stroke-linejoin: round;
    pointer-events: none;
}
.brick.leaf > .brickRect {
    fill: var(--color-leaf)
}
.brick.branch > .brickRect{
    fill: var(--color-branch)
}
.brick.root > .brickRect {
    fill: var(--color-root)
}
   </style>
    <g class="brick branch" transform="translate(0.07500000000000001,-1)">
        <rect width="1.45" height="1" stroke-width="0.05" class="brickRect" opacity="1" pointer-events="auto" rx="0.2"></rect>
        <g transform="translate(0.42500000000000004,0.5833333333333334)" class="brickText" opacity="1" pointer-events="auto">
            <path d="M0.26666666666666666 -0.19999999999999998C0.16666666666666666 -0.3333333333333333 0.13333333333333333 -0.26666666666666666 0.13333333333333333 -0.16666666666666666L0.13333333333333333 0.13333333333333333M0.03333333333333333 -0.06666666666666667L0.26666666666666666 -0.06666666666666667" opacity="1"></path>
            <path d="M0.4 -0.2833333333333333C0.325 -0.18333333333333332 0.325 0.016666666666666663 0.4 0.11666666666666665" opacity="1"></path>
            <path d="M0.49999999999999994 -0.2833333333333333C0.575 -0.18333333333333332 0.575 0.016666666666666663 0.49999999999999994 0.11666666666666665" opacity="1"></path>
        </g>
    </g>
    <g class="brick leaf" transform="translate(0.07500000000000001,-2)">
        <rect width="1.45" height="1" stroke-width="0.05" class="brickRect" opacity="1" pointer-events="auto" rx="0.2"></rect>
        <g transform="translate(0.475,0.5)" class="brickText" opacity="1" pointer-events="auto">
            <path d="M0.05 -0.1C0.15 -0.35 0.45 -0.05 0.05 0.2M0.45 0.1C0.35 0.35 0.05 0.05 0.45 -0.2" opacity="1"></path>
        </g>
    </g>
</svg>