<svg xmlns="http://www.w3.org/2000/svg" viewBox="0.05 -3 2.566666666666667 3" class="bricks" width="100%" height="100%">
    <style>
    .brickRect {
        stroke: black;
        fill: #FFF;
    }
    .brickText {
        text-anchor: middle;
        dominant-baseline: central;
        fill: none;
        stroke: black;
        stroke-width: 0.075;
        stroke-linecap: round;
        stroke-linejoin: round;
        user-select: none;
    }
    </style>
    <g class="brick" transform="translate(0.09,-0.96)">
        <rect width="2.486666666666667" height="0.92" stroke-width="0.08" class="brickRect" opacity="1" pointer-events="auto" rx="0.2"></rect>
        <g transform="translate(0.9933333333333334,0.45999999999999996)" class="brickText" opacity="1" pointer-events="auto">
            <path d="M0.25 -0.16666666666666669L0.25 0.16666666666666669M0.08333333333333334 0L0.4166666666666667 0" opacity="1"></path>
        </g>
    </g>
    <g class="brick commutable selected" transform="translate(1.59,-1.96)">
        <rect width="0.9866666666666669" height="0.92" stroke-width="0.08" class="brickRect" opacity="1" pointer-events="auto" rx="0.2"></rect>
        <g transform="translate(0.41000000000000014,0.5433333333333333)" class="brickText" opacity="1" pointer-events="auto">
            <path d="M0.08333333333333333 -0.26666666666666666C0.09999999999999999 -0.09999999999999999 0.09999999999999999 0 0.09999999999999999 0.13333333333333333" opacity="1"></path>
        </g>
    </g>
    <g class="brick commutable" transform="translate(0.09,-1.96)">
        <rect width="1.3199999999999998" height="0.92" stroke-width="0.08" class="brickRect" opacity="1" pointer-events="auto" rx="0.2"></rect>
        <g transform="translate(0.4099999999999999,0.45999999999999996)" class="brickText" opacity="1" pointer-events="auto">
            <path d="M0.08333333333333334 0L0.4166666666666667 0" opacity="1"></path>
        </g>
    </g>
    <g class="brick" transform="translate(0.09,-2.96)">
        <rect width="1.3199999999999998" height="0.92" stroke-width="0.08" class="brickRect" opacity="1" pointer-events="auto" rx="0.2"></rect>
        <g transform="translate(0.4933333333333333,0.5433333333333333)" class="brickText" opacity="1" pointer-events="auto">
            <path d="M0.03333333333333333 -0.16666666666666666C0.16666666666666666 -0.3333333333333333 0.3 -0.2333333333333333 0.13333333333333333 0C0 0.19999999999999998 0 0.06666666666666667 0.09999999999999999 0.06666666666666667C0.13333333333333333 0.06666666666666667 0.19999999999999998 0.13333333333333333 0.3 0.09999999999999999" opacity="1"></path>
        </g>
    </g>
</svg>