<svg xmlns="http://www.w3.org/2000/svg" viewBox="0 0 40 50">
    <style>
    text {
        font: 6px sans-serif;
        font-weight: 100;
        text-anchor: middle;
        dominant-baseline: middle;
    }
    circle, line {
        stroke: black;
        stroke-width: 0.5;
        fill: white;
    }
    </style>
    <!-- Edges-->
    <line x1="5" y1="45" x2="29" y2="5" />
    <line x1="11" y1="35" x2="17" y2="45" />
    <line x1="17" y1="25" x2="23" y2="35" />
    <line x1="23" y1="15" x2="29" y2="25" />
    <line x1="29" y1="5" x2="35" y2="15" />
    <!-- Nodes -->
    <circle cx="5" cy="45" r="4"/><text x="5" y="45">1</text>
    <circle cx="11" cy="35" r="4"/><text x="11" y="35">+</text>
    <circle cx="17" cy="45" r="4"/><text x="17" y="45">2</text>
    <circle cx="17" cy="25" r="4"/><text x="17" y="25">+</text>
    <circle cx="23" cy="35" r="4"/><text x="23" y="35">3</text>
    <circle cx="23" cy="15" r="4"/><text x="23" y="15">+</text>
    <circle cx="29" cy="25" r="4"/><text x="29" y="25">4</text>
    <circle cx="29" cy="5" r="4"/><text x="29" y="5">+</text>
    <circle cx="35" cy="15" r="4"/><text x="35" y="15">5</text>
</svg>